<svg t="1629810456597" class="icon" viewBox="0 0 1024 1024" version="1.1" xmlns="http://www.w3.org/2000/svg" p-id="5094" width="48" height="48"><path d="M512 1024C229.224918 1024 0 794.775082 0 512S229.224918 0 512 0 1024 229.224918 1024 512 794.775082 1024 512 1024z m0-50.360656C766.959213 973.639344 973.639344 766.959213 973.639344 512S766.959213 50.360656 512 50.360656 50.360656 257.040787 50.360656 512 257.040787 973.639344 512 973.639344z" fill="#1296db" p-id="5095"></path><path d="M545.57377 322.677508v442.569443a25.180328 25.180328 0 1 1-50.360655 0V305.387016l-133.287869 133.287869a25.180328 25.180328 0 0 1-35.588197-35.62177l155.731935-155.748722a41.967213 41.967213 0 0 1 59.358426 0l156.504131 156.520918a25.180328 25.180328 0 1 1-35.604984 35.588197L545.57377 322.694295z" fill="#1296db" p-id="5096"></path></svg>
